<svg id="iconfinder_5027838_dollar_management_money_icon" xmlns="http://www.w3.org/2000/svg" width="112.285" height="112" viewBox="0 0 112.285 112">
  <path id="Path_237" data-name="Path 237" d="M50.672,52.956V4.1A49.515,49.515,0,0,0,1.18,52.932H50.672Z" transform="translate(-1.18 2.62)" fill="#5fcb5f"/>
  <g id="Group_7" data-name="Group 7" transform="translate(0.799)">
    <g id="Group_5" data-name="Group 5" transform="translate(1.771 1.768)">
      <circle id="Ellipse_4" data-name="Ellipse 4" cx="8.064" cy="8.064" r="8.064" transform="translate(83.917 77.103)" fill="#84ff84"/>
      <path id="Path_238" data-name="Path 238" d="M66.5,56.65a16.043,16.043,0,0,0-32.02,0Z" transform="translate(41.468 51.813)" fill="#06fe06"/>
      <circle id="Ellipse_5" data-name="Ellipse 5" cx="8.064" cy="8.064" r="8.064" transform="translate(45.932 77.103)" fill="#84ff84"/>
      <path id="Path_239" data-name="Path 239" d="M50.4,56.65a16.043,16.043,0,0,0-32.02,0Z" transform="translate(19.606 51.813)" fill="#06fe06"/>
      <circle id="Ellipse_6" data-name="Ellipse 6" cx="8.064" cy="8.064" r="8.064" transform="translate(7.946 77.103)" fill="#84ff84"/>
      <path id="Path_240" data-name="Path 240" d="M34.29,56.65a16.043,16.043,0,0,0-32.02,0Z" transform="translate(-2.27 51.813)" fill="#06fe06"/>
      <g id="Group_4" data-name="Group 4" transform="translate(32.044)">
        <circle id="Ellipse_7" data-name="Ellipse 7" cx="21.952" cy="21.952" r="21.952" fill="#06fe06"/>
      </g>
    </g>
    <g id="Group_6" data-name="Group 6">
      <path id="Path_241" data-name="Path 241" d="M57.664,51.4a9.72,9.72,0,0,0,3.678-7.616A9.833,9.833,0,1,0,45.356,51.4,17.894,17.894,0,0,0,33.731,66.961,1.774,1.774,0,0,0,35.5,68.847h32a1.774,1.774,0,0,0,1.768-1.886A17.761,17.761,0,0,0,57.664,51.4ZM51.533,37.487a6.3,6.3,0,1,1-6.3,6.3A6.31,6.31,0,0,1,51.533,37.487ZM37.551,65.31a14.254,14.254,0,0,1,27.965,0Z" transform="translate(42.219 43.153)" fill="#288028"/>
      <path id="Path_242" data-name="Path 242" d="M41.564,51.4a9.72,9.72,0,0,0,3.678-7.616A9.833,9.833,0,1,0,29.256,51.4,17.858,17.858,0,0,0,17.631,66.961,1.774,1.774,0,0,0,19.4,68.847h32a1.774,1.774,0,0,0,1.768-1.886A17.834,17.834,0,0,0,41.564,51.4ZM35.41,37.487a6.3,6.3,0,1,1-6.3,6.3A6.31,6.31,0,0,1,35.41,37.487ZM21.427,65.31a14.254,14.254,0,0,1,27.965,0Z" transform="translate(20.357 43.153)" fill="#288028"/>
      <path id="Path_243" data-name="Path 243" d="M25.454,51.4a9.72,9.72,0,0,0,3.678-7.616A9.833,9.833,0,1,0,13.146,51.4,17.858,17.858,0,0,0,1.521,66.961,1.774,1.774,0,0,0,3.29,68.847h32a1.774,1.774,0,0,0,1.768-1.886A17.834,17.834,0,0,0,25.454,51.4ZM19.3,37.487a6.3,6.3,0,1,1-6.3,6.3A6.31,6.31,0,0,1,19.3,37.487ZM5.317,65.31a14.254,14.254,0,0,1,27.965,0Z" transform="translate(-1.519 43.153)" fill="#288028"/>
      <path id="Path_244" data-name="Path 244" d="M10.078,72.223a1.781,1.781,0,0,0,1.768-1.768V58H46.3v12.45a1.768,1.768,0,1,0,3.537,0V58H84.281v12.45a1.768,1.768,0,1,0,3.537,0V56.236a1.781,1.781,0,0,0-1.768-1.768H49.833V48.6a23.72,23.72,0,1,0-3.537,0v5.871H10.078A1.781,1.781,0,0,0,8.31,56.236V70.454A1.766,1.766,0,0,0,10.078,72.223ZM27.857,24.97A20.2,20.2,0,1,1,48.064,45.154h0A20.272,20.272,0,0,1,27.857,24.97Z" transform="translate(7.702 -1.25)" fill="#288028"/>
      <path id="Path_245" data-name="Path 245" d="M29.529,37.1A1.781,1.781,0,0,0,31.3,35.329V33.867a7.554,7.554,0,0,0-1.768-14.9,4.032,4.032,0,1,1,4.032-4.032,1.768,1.768,0,1,0,3.537,0A7.556,7.556,0,0,0,31.3,7.6V6.138a1.768,1.768,0,1,0-3.537,0V7.6a7.554,7.554,0,0,0,1.768,14.9A4.032,4.032,0,1,1,25.5,26.534a1.768,1.768,0,1,0-3.537,0,7.556,7.556,0,0,0,5.8,7.333v1.462A1.781,1.781,0,0,0,29.529,37.1Z" transform="translate(26.238 2.987)" fill="#245724"/>
    </g>
  </g>
</svg>
