<svg id="iconfinder_104485_feed_subscribe_rss_icon" xmlns="http://www.w3.org/2000/svg" width="77.598" height="69.2" viewBox="0 0 77.598 69.2">
  <path id="iconfinder_104485_feed_subscribe_rss_icon-2" data-name="iconfinder_104485_feed_subscribe_rss_icon" d="M3.433,41.411a38.317,38.317,0,0,1,25.644,9.477A30.547,30.547,0,0,1,39.71,73.818H54.642c0-25.184-22.973-45.672-51.209-45.672V41.411ZM3.456,17.9c34.533,0,62.63,25.092,62.63,55.937H81.018c0-38.159-34.8-69.2-77.562-69.2V17.9ZM24.1,64.569c0,5.072-4.632,9.186-10.342,9.186S3.42,69.643,3.42,64.569s4.63-9.186,10.341-9.186S24.1,59.494,24.1,64.569Z" transform="translate(-3.42 -4.635)" fill="#23bf23"/>
</svg>
