<svg xmlns="http://www.w3.org/2000/svg" width="173.352" height="104.026" viewBox="0 0 173.352 104.026">
  <g id="iconfinder_4288586_and_cargo_delivery_shipping_transport_icon" transform="translate(-2 -16)">
    <path id="Path_264" data-name="Path 264" d="M164.8,92.119V51.67L153.239,34.335H121.457V17H8.778V92.119H3v11.557H170.574V92.119Z" transform="translate(1.889 1.889)" fill="#d9dae2"/>
    <path id="Path_265" data-name="Path 265" d="M89.227,80.784H43V23H77.67L89.227,40.335Z" transform="translate(77.457 13.224)" fill="#23bf23"/>
    <rect id="Rectangle_669" data-name="Rectangle 669" width="167.62" height="5.211" transform="translate(4.605 100.244)" fill="#cfcfd9"/>
    <ellipse id="Ellipse_11" data-name="Ellipse 11" cx="11.725" cy="11.29" rx="11.725" ry="11.29" transform="translate(122.721 94.165)" fill="#444"/>
    <circle id="Ellipse_12" data-name="Ellipse 12" cx="11.29" cy="11.29" r="11.29" transform="translate(31.529 94.165)" fill="#444"/>
    <circle id="Ellipse_13" data-name="Ellipse 13" cx="5.645" cy="5.645" r="5.645" transform="translate(36.74 100.244)" fill="#e5e6eb"/>
    <circle id="Ellipse_14" data-name="Ellipse 14" cx="5.645" cy="5.645" r="5.645" transform="translate(129.669 100.244)" fill="#e5e6eb"/>
    <rect id="Rectangle_670" data-name="Rectangle 670" width="112.036" height="75.559" transform="translate(10.685 18.605)" fill="#1ca71c"/>
    <path id="Path_266" data-name="Path 266" d="M13.668,17H5V92.119H120.568V86.341H83.009A69.341,69.341,0,0,1,13.668,17Z" transform="translate(5.668 1.889)" fill="#54d254"/>
    <rect id="Rectangle_671" data-name="Rectangle 671" width="11.29" height="40.819" transform="translate(97.535 29.896)" fill="#00fc00"/>
    <rect id="Rectangle_672" data-name="Rectangle 672" width="12.159" height="40.819" transform="translate(74.085 29.896)" fill="#00fc00"/>
    <rect id="Rectangle_673" data-name="Rectangle 673" width="11.29" height="40.819" transform="translate(51.504 29.896)" fill="#00fc00"/>
    <rect id="Rectangle_674" data-name="Rectangle 674" width="11.29" height="40.819" transform="translate(28.055 29.896)" fill="#00fc00"/>
    <path id="Path_267" data-name="Path 267" d="M87.338,80.784H44V23h8.668V40.335a34.67,34.67,0,0,0,34.67,34.67h0Z" transform="translate(79.347 13.224)" fill="#2a712a"/>
    <path id="Path_268" data-name="Path 268" d="M71,53.789H45V28H71V53.789Z" transform="translate(81.236 22.67)" fill="#54d254"/>
    <path id="Path_269" data-name="Path 269" d="M69.114,48.224,46,28H69.114Z" transform="translate(83.125 22.67)" fill="#fff"/>
    <path id="Path_270" data-name="Path 270" d="M172.463,91.119h-2.889V53.56a2.907,2.907,0,0,0-.485-1.6L157.532,34.621a2.889,2.889,0,0,0-2.4-1.286h-26V27.409A11.421,11.421,0,0,0,117.716,16H18.885A11.118,11.118,0,0,0,7.778,27.106V91.119H4.889A2.889,2.889,0,0,0,2,94.009v11.557a2.889,2.889,0,0,0,2.889,2.889h23.4a14.446,14.446,0,0,0,28.314,0h64.14a14.446,14.446,0,0,0,28.314,0h23.4a2.889,2.889,0,0,0,2.889-2.889V94.009A2.889,2.889,0,0,0,172.463,91.119Zm-2.889,11.557H146.46a2.889,2.889,0,0,0-2.889,2.889,8.668,8.668,0,0,1-17.335,0,2.889,2.889,0,0,0-2.889-2.889H54.006a2.889,2.889,0,0,0-2.889,2.889,8.668,8.668,0,0,1-17.335,0,2.889,2.889,0,0,0-2.889-2.889H7.778V96.9h2.889a2.889,2.889,0,0,0,2.889-2.889v-66.9a5.333,5.333,0,0,1,5.328-5.328h98.831a5.64,5.64,0,0,1,5.631,5.631v8.815a2.889,2.889,0,0,0,2.889,2.889h27.346L163.8,54.426V94.009a2.889,2.889,0,0,0,2.889,2.889h2.889Z" transform="translate(0)" fill="#226322"/>
    <path id="Path_271" data-name="Path 271" d="M72.892,27h-26A2.889,2.889,0,0,0,44,29.889v26a2.889,2.889,0,0,0,2.889,2.889h26a2.889,2.889,0,0,0,2.889-2.889v-26A2.889,2.889,0,0,0,72.892,27ZM70,53H49.778V32.778H70Z" transform="translate(79.347 20.781)" fill="#1c461c"/>
  </g>
</svg>
